<?xml version="1.0" standalone="no"?><!DOCTYPE svg PUBLIC "-//W3C//DTD SVG 1.1//EN" "http://www.w3.org/Graphics/SVG/1.1/DTD/svg11.dtd"><svg t="1591593575801" class="icon" viewBox="0 0 1024 1024" version="1.1" xmlns="http://www.w3.org/2000/svg" p-id="5258" xmlns:xlink="http://www.w3.org/1999/xlink" width="200" height="200"><defs><style type="text/css"></style></defs><path d="M515.072 1013.248a491.52 491.52 0 1 1 213.504-934.4 30.72 30.72 0 0 1-25.6 55.296 430.08 430.08 0 1 0 241.664 366.848 30.72 30.72 0 1 1 61.44-2.816 491.52 491.52 0 0 1-491.008 515.072z" fill="#8a8a8a" p-id="5259"></path><path d="M515.072 804.864A281.6 281.6 0 0 1 247.552 614.4a30.72 30.72 0 0 1 58.112-20.224 219.904 219.904 0 0 0 51.2 84.224 222.208 222.208 0 0 0 313.856 0 219.392 219.392 0 0 0 51.2-84.224 30.72 30.72 0 0 1 58.112 20.224 281.6 281.6 0 0 1-267.52 190.208z" fill="#8a8a8a" p-id="5260"></path><path d="M902.4 268.032m-30.72 0a30.72 30.72 0 1 0 61.44 0 30.72 30.72 0 1 0-61.44 0Z" fill="#8a8a8a" p-id="5261"></path><path d="M954.624 378.112m-30.72 0a30.72 30.72 0 1 0 61.44 0 30.72 30.72 0 1 0-61.44 0Z" fill="#8a8a8a" p-id="5262"></path><path d="M818.176 175.36m-30.72 0a30.72 30.72 0 1 0 61.44 0 30.72 30.72 0 1 0-61.44 0Z" fill="#8a8a8a" p-id="5263"></path></svg>